<svg version="1.1"
	xmlns="http://www.w3.org/2000/svg"
	viewBox="0 0 1078.368 1035.993"
>
	<style type="text/css">
		.st0{fill:#9396f7;}
		.st1{opacity:0.3;}
	</style>
	<path id="b" class="st0"
		d="M977.133,366.872c-34.06,111-68.92,221.68-108.66,330.78c-4,11-8.82,21.36-17.57,29.49
	c-14.4,13.39-30.36,13.62-44.61,0c-56.28-53.873-113.493-106.757-171.64-158.65c-49.41-44.27-98.45-88.94-147.84-133.23
	c-15.2-13.63-21.13-30.73-21.07-50.5c-0.19-10.682,2.292-21.241,7.22-30.72c37.57-73.61,71.1-149.11,105.07-224.4
	c14.56-32.27,30.22-64,45.5-96c1.808-3.846,4.038-7.478,6.65-10.83c11.45-14.4,29.12-15.51,42.6-2.15
	c15.58,15.46,30.46,31.63,45.85,47.29c78.313,79.64,156.683,159.213,235.11,238.72c11.51,11.65,21,24.18,24.32,40.64
	C979.42,353.805,979.1,360.537,977.133,366.872z M796.873,760.932c-3.53-9-10-16-16.91-22.49c-25.62-23.79-51-47.85-77-71.17
	c-76.17-68.16-154.55-133.87-229-204c-12.3-11.59-27.03-18.97-43.17-23.39c-14.03-3.84-28.15-5.73-42.31,0.27
	c-70.6,30-141.98,58.16-213.06,87c-14.21,5.77-28.42,11.55-42.55,17.55c-17.49,7.41-21.97,22.46-11.79,38.65
	c3.32,5.28,7.73,9.55,12.37,13.55c10.34,8.98,20.76,17.86,31.14,26.8c84.44,72.73,170.54,143.54,254.07,217.34
	c15.75,13.91,34.35,21.34,55.75,20.49c6.36-0.26,12.67,0.23,18.98-1.56c69.57-19.42,140.28-34.15,210.48-51
	c26.61-6.35,53.09-13.35,79.53-20.35C797.873,784.772,802.353,774.992,796.873,760.932z M597.283,0.132
	c-4.677,0.713-9.173,2.322-13.24,4.74c-83.58,47-169.46,89.59-254.38,134c-26.11,13.65-46.38,33.83-60.61,59.83
	c-15.32,27.94-30.22,56.11-45.88,83.86c-39.08,69.29-78.6,138.33-115.3,208.93c-4.04,7.78-7.82,15.64-8.66,24.09
	c-0.34,9.56,5.07,12.47,15.1,8.35c86.073-35.793,172.203-71.46,258.39-107c30.07-12.43,51.17-34.28,66.22-62.22
	c15.95-29.49,30.83-59.53,46.64-89.08c42.21-78.9,83.99-157.99,118.64-240.65c1.83-4.37,3.67-8.74,4.33-13.43
	C609.603,3.892,604.933-0.868,597.283,0.132z M158.623,891.855c-7.44,1.24-14.92,2.34-22.33,3.74c-35.06,6.62-69.9,14-102.6,29
	c-8.85,4.05-17.21,8.94-24.29,15.7c-13.77,13.18-12.4,24.4,4,34c12.97,7.6,27.2,12,41.52,16c55.21,15.35,111.82,22.93,168.55,29.59
	c54.63,6.4,109.43,10.61,164.43,13.33c103.23,5.12,206.33,3,309.33-5c53.89-4.16,107.69-9.3,161.26-16.64
	c50.26-6.88,100.38-14.62,149.38-28.22c20-5.56,40-11.35,57.47-23.39c15.97-10.97,17.27-24.52,3.81-38.6
	c-7.66-7.99-17.22-13.25-27.22-17.52c-34.93-14.82-71.96-20.75-109.27-25.28c-5.37-0.65-10.86-2.38-17.27-0.75
	c1.22,1.13,1.6,1.77,2.13,1.92c2.03,0.59,4.1,1.08,6.17,1.52c36.05,7.65,71.89,16.08,105.63,31.44c10.76,4.92,21.21,10.46,28.84,20
	c3.88,4.89,3.72,8.62-2.12,12c-10.52,6.14-21.89,10-33.52,13.14c-42.28,11.38-85.5,17.59-128.87,22.59
	c-54.63,6.34-109.41,11.15-164.3,14.85c-70.93,4.77-141.92,8.31-213,9.09c-93.09,1.02-186.02-3.17-278.81-10.63
	c-52.49-4.22-104.85-9.34-156.69-18.82c-19.27-3.52-38.54-7.32-56.54-15.42c-7.34-3.31-7.51-4.45-1.6-10.19
	c7.2-6.99,15.86-11.89,24.81-16.2c34.15-16.48,70.44-26.86,107-36.42c3.2-0.83,6.9-0.81,9.84-4
	C162.143,891.154,160.353,891.654,158.623,891.855z M283.573,885.057c-20.21,2.928-40.26,6.404-59.66,11.903
	c-9.35,2.65-18.58,5.61-26.86,10.006c-8.12,4.309-16.91,9.03-15.81,17.886c1.02,8.221,10.79,10.816,18.79,13.776
	c14.4,5.309,29.66,8.681,45.1,11.443c83.74,14.95,168.83,20.647,254.42,22.147c67.42,1.198,134.51-3.095,201.42-9.117
	c45.51-4.103,90.8-9.459,135.11-18.981c16.87-3.626,33.7-7.626,48.21-15.751c12.42-6.959,13.42-15.791,3.42-24.869
	c-6.56-5.975-15.17-9.506-24.11-12.506c-23.72-7.951-48.89-11.165-74.2-13.815c-1.16-0.127-2.41-0.048-2.55,1.293
	c0.72,1.484,2.55,1.412,4.09,1.777c9.44,2.262,19.02,4.396,28.44,6.84c16.83,4.388,33.32,9.522,48,17.616
	c4.18,2.301,9.95,4.952,9.18,9.197c-0.67,3.698-7.15,4.229-11.38,5.737c-1.512,0.529-3.061,0.987-4.64,1.373
	c-24.65,6.134-50.04,9.514-75.56,12.022c-85.79,8.384-172.098,13.002-258.53,13.831c-78.5,0.794-156.74-2.777-234.74-9.522
	c-26.95-2.333-53.87-5.309-80-11.443c-4.16-0.976-10.65-1.246-11.31-4.602s5.25-5.285,8.9-7.261
	c16.54-8.943,35.03-14.648,53.68-20.052c7.011-2.028,14.06-3.985,21.611-6.095c2.172-0.607,1.295-3.175-0.968-2.84
	C283.608,885.052,283.591,885.055,283.573,885.057z" />
	<path id="a" class="st1"
		d="M801.083,419.692c20.78-2.55,36.08-19.76,37.65-42.33c3-42.83-33.56-93.16-75.25-103.61
	c-11.8-3-23.49-3-34.42,3c-10.11,5.51-16.52,14-19.81,26.9c22.39-14.16,42.15-8.36,60.69,4.18c16.32,11,28.84,25.79,36.38,44.21
	c9.77,23.89,12,47-8.65,67C798.793,420.372,799.983,419.832,801.083,419.692z M649.813,742.932c3.301-0.256,6.586-0.69,9.84-1.3
	c10.7-2.55,16.22-9.91,14.6-19.12c-0.59-3.41-1.32-5.78-5.84-3.5c-5.77,2.92-12.16,3.43-18.62,2.82c-25-2.38-45.1-13.92-61.55-32.46
	c-1.32-1.49-2-4.41-4.52-3.79c-2.72,0.65-3.8,3.32-4.51,5.87c-2.41,8.63,1.85,15.38,7.14,21.12
	C603.403,731.052,624.873,740.632,649.813,742.932z M419.543,741.042c-3.78-7.22-5.15-7.71-11.4-2.61
	c-4.405,3.366-6.69,8.819-6,14.32c0.64,7,4.4,12.4,9.17,17.07c15.41,15.11,34.43,21.55,55.56,22.82c1.17,0,2.35,0,3.53,0
	c7.93-0.37,15.57-1.56,20.82-8.45c1.29-1.69,2.45-3.82,1.77-5.9c-0.9-2.78-3.62-1.56-5.51-1.52
	c-8.262,0.302-16.515-0.796-24.41-3.25C444.873,767.662,428.873,758.782,419.543,741.042z M475.053,562.412
	c-12.06,0.43-23.44-2.84-34-8.24c-17.92-9.15-34.25-20.19-40.45-41c-0.95-3.18-3-3.11-5.45-2.74c-13.39,2-19,14.21-11.21,27
	c16,26.37,40.67,38.83,69.06,41.66c10.92-0.74,19.82-2,25.2-10.71C480.173,565.182,480.933,562.202,475.053,562.412z
	 M306.063,617.562c-11-0.38-21.65-2.29-31.57-6.93c-17.47-8.15-33.48-18-37-39.31c-0.48-2.91-2.09-3.18-4.55-2.75
	c-8.717,1.473-15.074,9.059-15,17.9c0,9.1,4.53,16.29,10.5,22.51c15.47,16.1,34.85,23.53,56.87,24.67c1.18,0,2.36,0,3.54,0
	c8-0.27,15.53-1.74,20.94-8.35c1.35-1.65,2.4-3.72,1.75-5.9C310.633,616.542,307.973,617.622,306.063,617.562z M504.633,77.982
	c-4.207,0.658-8.22,2.224-11.76,4.59c-21.69,13.79-37.42,32.74-48,56c-1.413,3.234-2.232,6.696-2.42,10.22
	c-0.28,4.76,2.33,7.47,8.17,7.35c3.91,0.32,6-2.22,7.88-6.44c11-24.44,27.55-44.28,51.08-57.63c4-2.25,5.9-4.45,4.56-8.76
	C512.693,78.672,509.003,77.392,504.633,77.982z M182.633,428.312c10.34-26.84,28.79-46.76,53.27-61.32
	c4.71-2.8,4.82-6.69,3.49-10.93c-1.41-4.5-5.3-4-8.88-3.41c-3.496,0.662-6.822,2.023-9.78,4c-21.07,12.88-37,30.54-48.5,52.3
	c-2.58,4.549-4.024,9.654-4.21,14.88c0,4,0.63,7.85,5.4,8.67C177.213,433.132,180.793,433.082,182.633,428.312z M367.973,219.082
	c-3.501,0.615-6.843,1.924-9.83,3.85c-13.84,8.18-24.85,19.45-34.66,32c-6.3,8-11.75,16.62-14.29,26.64c-1,3.94-1.31,8.64,3.78,10
	c4.71,1.29,9.06,0.66,11.69-4.93c10.156-21.755,26.537-40.008,47.07-52.45c3.26-2,4.49-4.6,4.61-8.52
	C376.003,220.832,373.273,218.342,367.973,219.082z" />
</svg>