<svg xmlns="http://www.w3.org/2000/svg" fill="currentColor" viewBox="0 0 1323.09 1766.45">
  <path fill="transparent"
    d="M429.21-305.24c20.78-2.55,36.08-19.76,37.65-42.33,3-42.83-33.56-93.16-75.25-103.61-11.8-3-23.49-3-34.42,3-10.11,5.51-16.52,14-19.81,26.9,22.39-14.16,42.15-8.36,60.69,4.18,16.32,11,28.84,25.79,36.38,44.21,9.77,23.89,12,47-8.65,67C426.92-304.56,428.11-305.1,429.21-305.24Z"
    transform="translate(490.44 724.9)" />
  <path fill="transparent"
    d="M277.94,18a92.12,92.12,0,0,0,9.84-1.3c10.7-2.55,16.22-9.91,14.6-19.12-.59-3.41-1.32-5.78-5.84-3.5C290.77-3,284.38-2.49,277.92-3.1c-25-2.38-45.1-13.92-61.55-32.46-1.32-1.49-2-4.41-4.52-3.79-2.72.65-3.8,3.32-4.51,5.87-2.41,8.63,1.85,15.38,7.14,21.12C231.53,6.12,253,15.7,277.94,18Z"
    transform="translate(490.44 724.9)" />
  <path fill="transparent"
    d="M47.67,16.11c-3.78-7.22-5.15-7.71-11.4-2.61a15.58,15.58,0,0,0-6,14.32c.64,7,4.4,12.4,9.17,17.07C54.85,60,73.87,66.44,95,67.71c1.17,0,2.35,0,3.53,0,7.93-.37,15.57-1.56,20.82-8.45,1.29-1.69,2.45-3.82,1.77-5.9-.9-2.78-3.62-1.56-5.51-1.52A73.22,73.22,0,0,1,91.2,48.59C73,42.73,57,33.85,47.67,16.11Z"
    transform="translate(490.44 724.9)" />
  <path fill="transparent"
    d="M103.18-162.52c-12.06.43-23.44-2.84-34-8.24-17.92-9.15-34.25-20.19-40.45-41-.95-3.18-3-3.11-5.45-2.74-13.39,2-19,14.21-11.21,27,16,26.37,40.67,38.83,69.06,41.66,10.92-.74,19.82-2,25.2-10.71C108.3-159.75,109.06-162.73,103.18-162.52Z"
    transform="translate(490.44 724.9)" />
  <path fill="transparent"
    d="M-65.81-107.37c-11-.38-21.65-2.29-31.57-6.93-17.47-8.15-33.48-18-37-39.31-.48-2.91-2.09-3.18-4.55-2.75a18,18,0,0,0-15,17.9c0,9.1,4.53,16.29,10.5,22.51,15.47,16.1,34.85,23.53,56.87,24.67,1.18,0,2.36,0,3.54,0,8-.27,15.53-1.74,20.94-8.35,1.35-1.65,2.4-3.72,1.75-5.9C-61.24-108.39-63.9-107.31-65.81-107.37Z"
    transform="translate(490.44 724.9)" />
  <path fill="transparent"
    d="M132.76-646.95A29.31,29.31,0,0,0,121-642.36c-21.69,13.79-37.42,32.74-48,56a29.45,29.45,0,0,0-2.42,10.22c-.28,4.76,2.33,7.47,8.17,7.35,3.91.32,6-2.22,7.88-6.44,11-24.44,27.55-44.28,51.08-57.63,4-2.25,5.9-4.45,4.56-8.76C140.82-646.26,137.13-647.54,132.76-646.95Z"
    transform="translate(490.44 724.9)" />
  <path fill="transparent"
    d="M-189.24-296.62c10.34-26.84,28.79-46.76,53.27-61.32,4.71-2.8,4.82-6.69,3.49-10.93-1.41-4.5-5.3-4-8.88-3.41a26.46,26.46,0,0,0-9.78,4c-21.07,12.88-37,30.54-48.5,52.3a32.51,32.51,0,0,0-4.21,14.88c0,4,.63,7.85,5.4,8.67C-194.66-291.8-191.08-291.85-189.24-296.62Z"
    transform="translate(490.44 724.9)" />
  <path fill="transparent"
    d="M-3.9-505.85A26.66,26.66,0,0,0-13.73-502c-13.84,8.18-24.85,19.45-34.66,32-6.3,8-11.75,16.62-14.29,26.64-1,3.94-1.31,8.64,3.78,10,4.71,1.29,9.06.66,11.69-4.93A121.35,121.35,0,0,1-.14-490.74c3.26-2,4.49-4.6,4.61-8.52C4.13-504.1,1.4-506.59-3.9-505.85Z"
    transform="translate(490.44 724.9)" />
  <path fill="currentColor"
    d="M93.87-340.17a64.12,64.12,0,0,1,7.22-30.72c37.57-73.61,71.1-149.11,105.07-224.4,14.56-32.27,30.22-64,45.5-96a57.25,57.25,0,0,1,6.65-10.83c11.45-14.4,29.12-15.51,42.6-2.15,15.58,15.46,30.46,31.63,45.85,47.29Q464.23-537.52,581.87-418.26c11.51,11.65,21,24.18,24.32,40.64a39.05,39.05,0,0,1-.93,19.56c-34.06,111-68.92,221.68-108.66,330.78-4,11-8.82,21.36-17.57,29.49-14.4,13.39-30.36,13.62-44.61,0Q350-78.6,262.78-156.44c-49.41-44.27-98.45-88.94-147.84-133.23C99.74-303.3,93.81-320.4,93.87-340.17Zm243.51-81.11c22.39-14.16,42.15-8.36,60.69,4.18,16.32,11,28.84,25.79,36.38,44.21,9.77,23.89,12,47-8.65,67,1.12,1.3,2.31.76,3.41.62,20.78-2.55,36.08-19.76,37.65-42.33,3-42.83-33.56-93.16-75.25-103.61-11.8-3-23.49-3-34.42,3C347.08-442.67,340.67-434.15,337.38-421.28Z"
    transform="translate(490.44 724.9)" />
  <path fill="currentColor"
    d="M102.54,136.6c-21.4.85-40-6.58-55.75-20.49C-36.74,42.31-122.84-28.5-207.28-101.23c-10.38-8.94-20.8-17.82-31.14-26.8-4.64-4-9.05-8.27-12.37-13.55-10.18-16.19-5.7-31.24,11.79-38.65,14.13-6,28.34-11.78,42.55-17.55,71.08-28.84,142.46-57,213.06-87,14.16-6,28.28-4.11,42.31-.27,16.14,4.42,30.87,11.8,43.17,23.39,74.45,70.13,152.83,135.84,229,204,26,23.32,51.38,47.38,77,71.17C415,20,421.47,27,425,36c5.48,14.06,1,23.84-13.47,27.69-26.44,7-52.92,14-79.53,20.35-70.2,16.85-140.91,31.58-210.48,51C115.21,136.83,108.9,136.34,102.54,136.6ZM81.11-145.81c10.92-.74,19.82-2,25.2-10.71,2-3.23,2.75-6.21-3.13-6-12.06.43-23.44-2.84-34-8.24-17.92-9.15-34.25-20.19-40.45-41-.95-3.18-3-3.11-5.45-2.74-13.39,2-19,14.21-11.21,27C28.08-161.1,52.72-148.64,81.11-145.81ZM-86.61-91.28c1.18,0,2.36,0,3.54,0,8-.27,15.53-1.74,20.94-8.35,1.35-1.65,2.4-3.72,1.75-5.9-.86-2.86-3.52-1.78-5.43-1.84-11-.38-21.65-2.29-31.57-6.93-17.47-8.15-33.48-18-37-39.31-.48-2.91-2.09-3.18-4.55-2.75a18,18,0,0,0-15,17.9c0,9.1,4.53,16.29,10.5,22.51C-128-99.85-108.63-92.42-86.61-91.28ZM277.94,18a92.12,92.12,0,0,0,9.84-1.3c10.7-2.55,16.22-9.91,14.6-19.12-.59-3.41-1.32-5.78-5.84-3.5C290.77-3,284.38-2.49,277.92-3.1c-25-2.38-45.1-13.92-61.55-32.46-1.32-1.49-2-4.41-4.52-3.79-2.72.65-3.8,3.32-4.51,5.87-2.41,8.63,1.85,15.38,7.14,21.12C231.53,6.12,253,15.7,277.94,18ZM95,67.71c1.17,0,2.35,0,3.53,0,7.93-.37,15.57-1.56,20.82-8.45,1.29-1.69,2.45-3.82,1.77-5.9-.9-2.78-3.62-1.56-5.51-1.52A73.22,73.22,0,0,1,91.2,48.59C73,42.73,57,33.85,47.67,16.11c-3.78-7.22-5.15-7.71-11.4-2.61a15.58,15.58,0,0,0-6,14.32c.64,7,4.4,12.4,9.17,17.07C54.85,60,73.87,66.44,95,67.71Z"
    transform="translate(490.44 724.9)" />
  <path fill="currentColor"
    d="M-272.66-209.35c.84-8.45,4.62-16.31,8.66-24.09,36.7-70.6,76.22-139.64,115.3-208.93,15.66-27.75,30.56-55.92,45.88-83.86,14.23-26,34.5-46.18,60.61-59.83,84.92-44.41,170.8-87,254.38-134a36.74,36.74,0,0,1,13.24-4.74c7.65-1,12.32,3.76,11.25,11.42-.66,4.69-2.5,9.06-4.33,13.43C197.68-617.29,155.9-538.2,113.69-459.3,97.88-429.75,83-399.71,67.05-370.22,52-342.28,30.9-320.43.83-308q-129.28,53.31-258.39,107C-267.59-196.88-273-199.79-272.66-209.35Zm68.81-91.77c0,4,.63,7.85,5.4,8.67,3.79.65,7.37.6,9.21-4.17,10.34-26.84,28.79-46.76,53.27-61.32,4.71-2.8,4.82-6.69,3.49-10.93-1.41-4.5-5.3-4-8.88-3.41a26.46,26.46,0,0,0-9.78,4c-21.07,12.88-37,30.54-48.5,52.3A32.51,32.51,0,0,0-203.85-301.12ZM78.74-568.79c3.91.32,6-2.22,7.88-6.44,11-24.44,27.55-44.28,51.08-57.63,4-2.25,5.9-4.45,4.56-8.76-1.44-4.64-5.13-5.92-9.5-5.33A29.31,29.31,0,0,0,121-642.36c-21.69,13.79-37.42,32.74-48,56a29.45,29.45,0,0,0-2.42,10.22C70.29-571.38,72.9-568.67,78.74-568.79ZM4.47-499.26c-.34-4.84-3.07-7.33-8.37-6.59A26.84,26.84,0,0,0-13.73-502c-13.84,8.18-24.85,19.45-34.66,32-6.3,8-11.75,16.62-14.29,26.64-1,3.94-1.31,8.64,3.78,10,4.71,1.29,9.06.66,11.69-4.93A121.35,121.35,0,0,1-.14-490.74C3.12-492.75,4.35-495.34,4.47-499.26Z"
    transform="translate(490.44 724.9)" />
  <path fill="currentColor"
    d="M-207.51,170.68c-2.94,3.19-6.64,3.17-9.84,4-36.56,9.56-72.85,19.94-107,36.42-8.95,4.31-17.61,9.21-24.81,16.2-5.91,5.74-5.74,6.88,1.6,10.19,18,8.1,37.27,11.9,56.54,15.42,51.84,9.48,104.2,14.6,156.69,18.82,92.79,7.46,185.72,11.65,278.81,10.63,71.08-.78,142.07-4.32,213-9.09,54.89-3.7,109.67-8.51,164.3-14.85,43.37-5,86.59-11.21,128.87-22.59,11.63-3.14,23-7,33.52-13.14,5.84-3.38,6-7.11,2.12-12-7.63-9.54-18.08-15.08-28.84-20-33.74-15.36-69.58-23.79-105.63-31.44-2.07-.44-4.14-.93-6.17-1.52-.53-.15-.91-.79-2.13-1.92,6.41-1.63,11.9.1,17.27.75,37.31,4.53,74.34,10.46,109.27,25.28,10,4.27,19.56,9.53,27.22,17.52,13.46,14.08,12.16,27.63-3.81,38.6C676,250,656,255.79,636,261.35c-49,13.6-99.12,21.34-149.38,28.22-53.57,7.34-107.37,12.48-161.26,16.64-103,8-206.1,10.12-309.33,5-55-2.72-109.8-6.93-164.43-13.33-56.73-6.66-113.34-14.24-168.55-29.59-14.32-4-28.55-8.4-41.52-16-16.4-9.6-17.77-20.82-4-34,7.08-6.76,15.44-11.65,24.29-15.7,32.7-15,67.54-22.38,102.6-29,7.41-1.4,14.89-2.5,22.33-3.74C-211.52,169.65-209.73,169.15-207.51,170.68Z"
    transform="translate(490.44 724.9)" />
  <path fill="currentColor"
    d="M-81.56,151.34c-9.77,3.46-18.58,6.51-27.33,9.7-18.65,6.81-37.14,14-53.68,25.27-3.65,2.49-9.56,4.92-8.9,9.15s7.15,4.57,11.31,5.8c26.13,7.73,53.05,11.48,80,14.42,78,8.5,156.24,13,234.74,12a2347.22,2347.22,0,0,0,258.53-17.43c25.52-3.16,50.91-7.42,75.56-15.15a42.36,42.36,0,0,0,4.64-1.73c4.23-1.9,10.71-2.57,11.38-7.23.77-5.35-5-8.69-9.18-11.59-14.68-10.2-31.17-16.67-48-22.2-9.42-3.08-19-5.77-28.44-8.62-1.54-.46-3.37-.37-4.09-2.24.14-1.69,1.39-1.79,2.55-1.63,25.31,3.34,50.48,7.39,74.2,17.41,8.94,3.78,17.55,8.23,24.11,15.76,10,11.44,9,22.57-3.42,31.34-14.51,10.24-31.34,15.28-48.21,19.85-44.31,12-89.6,18.75-135.11,23.92-66.91,7.59-134,13-201.42,11.49C42.09,257.74-43,250.56-126.74,231.72c-15.44-3.48-30.7-7.73-45.1-14.42-8-3.73-17.77-7-18.79-17.36-1.1-11.16,7.69-17.11,15.81-22.54,8.28-5.54,17.51-9.27,26.86-12.61,19.4-6.93,39.45-11.31,59.66-15C-86.55,149.47-84.61,148.76-81.56,151.34Z"
    transform="translate(490.44 724.9)" />
</svg>